<svg width="125" height="19" viewBox="0 0 125 19" fill="none" xmlns="http://www.w3.org/2000/svg">
<path d="M13.1971 1.90205C14.1812 1.90488 15.1242 2.2826 15.8201 2.95271C16.516 3.62282 16.9082 4.53088 16.9111 5.47855V12.6308C16.9082 13.5785 16.516 14.4865 15.8201 15.1566C15.1242 15.8267 14.1812 16.2045 13.1971 16.2073H5.76976C4.78563 16.2045 3.84265 15.8267 3.14677 15.1566C2.45088 14.4865 2.05864 13.5785 2.0557 12.6308V5.47855C2.05864 4.53088 2.45088 3.62282 3.14677 2.95271C3.84265 2.2826 4.78563 1.90488 5.76976 1.90205H13.1971ZM13.1971 0.47168H5.76976C2.91 0.47168 0.570312 2.72471 0.570312 5.47855V12.6308C0.570312 15.3846 2.91 17.6377 5.76976 17.6377H13.1971C16.0568 17.6377 18.3965 15.3846 18.3965 12.6308V5.47855C18.3965 2.72471 16.0568 0.47168 13.1971 0.47168Z" fill="#2E4049"/>
<path d="M14.3117 5.47876C14.0913 5.47876 13.8759 5.41583 13.6927 5.29794C13.5095 5.18006 13.3667 5.0125 13.2824 4.81645C13.198 4.62041 13.176 4.40469 13.219 4.19657C13.262 3.98846 13.3681 3.79729 13.5239 3.64725C13.6797 3.4972 13.8782 3.39502 14.0943 3.35362C14.3105 3.31223 14.5345 3.33347 14.7381 3.41468C14.9416 3.49588 15.1156 3.63339 15.2381 3.80983C15.3605 3.98626 15.4258 4.19369 15.4258 4.40588C15.4261 4.54686 15.3975 4.68651 15.3417 4.81681C15.2858 4.94712 15.2037 5.06551 15.1002 5.16519C14.9967 5.26488 14.8737 5.3439 14.7384 5.39771C14.6031 5.45152 14.4581 5.47906 14.3117 5.47876ZM9.4839 6.19375C10.0715 6.19375 10.646 6.36155 11.1346 6.67594C11.6232 6.99032 12.004 7.43717 12.2289 7.95997C12.4538 8.48277 12.5126 9.05805 12.398 9.61305C12.2833 10.1681 12.0004 10.6779 11.5848 11.078C11.1693 11.4781 10.6399 11.7506 10.0635 11.861C9.48719 11.9714 8.88979 11.9148 8.34688 11.6982C7.80397 11.4817 7.33994 11.1149 7.01346 10.6444C6.68699 10.1739 6.51273 9.62075 6.51273 9.05488C6.51357 8.29631 6.82688 7.56904 7.3839 7.03265C7.94091 6.49626 8.69615 6.19456 9.4839 6.19375ZM9.4839 4.76338C8.60247 4.76338 7.74085 5.01507 7.00797 5.48663C6.27509 5.95818 5.70389 6.62842 5.36658 7.41259C5.02927 8.19676 4.94102 9.05964 5.11298 9.89211C5.28493 10.7246 5.70938 11.4892 6.33264 12.0894C6.9559 12.6896 7.74998 13.0983 8.61447 13.2639C9.47895 13.4295 10.375 13.3445 11.1893 13.0197C12.0037 12.6949 12.6997 12.1448 13.1894 11.4391C13.6791 10.7334 13.9404 9.90365 13.9404 9.05488C13.9404 7.9167 13.4709 6.82514 12.6352 6.02033C11.7994 5.21552 10.6658 4.76338 9.4839 4.76338Z" fill="#2E4049"/>
<path fill-rule="evenodd" clip-rule="evenodd" d="M53.2227 9.10618C53.2227 4.36638 49.2317 0.523193 44.3096 0.523193C39.3875 0.523193 35.3965 4.36638 35.3965 9.10618C35.3965 13.39 38.6553 16.9408 42.9169 17.5853V11.588H40.6532V9.10618H42.9169V7.21524C42.9169 5.06452 44.2479 3.87554 46.2836 3.87554C47.2589 3.87554 48.2791 4.04337 48.2791 4.04337V6.15578H47.1546C46.048 6.15578 45.7019 6.81713 45.7019 7.49687V9.10618H48.1737L47.7789 11.588H45.7023V17.5861C49.9638 16.942 53.2227 13.3912 53.2227 9.10618Z" fill="#2E4049"/>
<path d="M89.3222 3.22528C88.6057 3.53658 87.8477 3.74167 87.072 3.83407C87.8872 3.35674 88.5002 2.5984 88.7961 1.70129C88.0254 2.15196 87.1836 2.46817 86.3068 2.63637C85.9376 2.24942 85.4936 1.94159 85.0017 1.73159C84.5098 1.52159 83.9803 1.41381 83.4455 1.4148C81.2801 1.4148 79.5277 3.14172 79.5277 5.27051C79.5262 5.56662 79.5601 5.86185 79.6288 6.14989C78.076 6.0771 76.5555 5.68099 75.1646 4.98691C73.7737 4.29283 72.543 3.31606 71.5513 2.1191C71.2033 2.70566 71.0193 3.37491 71.0185 4.0569C71.0185 5.39387 71.716 6.57565 72.7693 7.26801C72.1452 7.2532 71.534 7.08803 70.9874 6.78654V6.83429C70.9874 8.70445 72.3403 10.2603 74.1309 10.6144C73.7942 10.7042 73.4472 10.7496 73.0987 10.7497C72.8515 10.7501 72.6048 10.7261 72.3622 10.6781C72.86 12.21 74.3088 13.3241 76.0249 13.356C74.6304 14.4307 72.9183 15.0116 71.1577 15.0073C70.8452 15.0068 70.533 14.9882 70.2227 14.9516C72.0137 16.0953 74.0957 16.7002 76.2207 16.6944C83.4371 16.6944 87.3796 10.8173 87.3796 5.72015C87.3796 5.55303 87.3752 5.38591 87.3673 5.22277C88.1325 4.67845 88.7945 4.00203 89.3222 3.22528Z" fill="#2E4049"/>
<path d="M115.379 0C110.378 0 106.322 4.05345 106.322 9.05256C106.322 12.7585 108.554 15.943 111.744 17.3454C111.72 16.7149 111.74 15.9551 111.902 15.2681C112.076 14.5326 113.066 10.3337 113.066 10.3337C113.066 10.3337 112.775 9.75575 112.775 8.90304C112.775 7.56132 113.551 6.55907 114.522 6.55907C115.347 6.55907 115.743 7.17739 115.743 7.91695C115.743 8.74542 115.213 9.98207 114.942 11.1298C114.716 12.0916 115.423 12.8716 116.373 12.8716C118.088 12.8716 119.244 10.6691 119.244 8.0584C119.244 6.07411 117.906 4.59094 115.476 4.59094C112.731 4.59094 111.016 6.63989 111.016 8.92728C111.016 9.71534 111.251 10.273 111.615 10.7014C111.78 10.8994 111.805 10.9803 111.744 11.2066C111.7 11.3723 111.603 11.7724 111.558 11.934C111.497 12.1644 111.311 12.2452 111.105 12.1603C109.84 11.6431 109.249 10.2609 109.249 8.70097C109.249 6.13069 111.421 3.04716 115.723 3.04716C119.179 3.04716 121.456 5.54874 121.456 8.23217C121.456 11.7845 119.479 14.4356 116.568 14.4356C115.589 14.4356 114.671 13.9062 114.356 13.3081C114.356 13.3081 113.83 15.3934 113.717 15.7975C113.527 16.4967 113.151 17.1918 112.807 17.7374C113.641 17.9832 114.506 18.1084 115.375 18.1092C120.376 18.1092 124.431 14.0557 124.431 9.05661C124.431 4.05749 120.38 0 115.379 0Z" fill="#2E4049"/>
</svg>
