<svg width="200" height="73" viewBox="0 0 200 73" fill="none" xmlns="http://www.w3.org/2000/svg">
<rect width="199.861" height="72.1092" fill="#4BC9C4"/>
<path d="M50.6268 28.9021C51.6109 28.9049 52.5539 29.2826 53.2498 29.9527C53.9456 30.6228 54.3379 31.5309 54.3408 32.4786V39.6308C54.3379 40.5785 53.9456 41.4865 53.2498 42.1566C52.5539 42.8267 51.6109 43.2045 50.6268 43.2073H43.1994C42.2153 43.2045 41.2723 42.8267 40.5765 42.1566C39.8806 41.4865 39.4883 40.5785 39.4854 39.6308V32.4786C39.4883 31.5309 39.8806 30.6228 40.5765 29.9527C41.2723 29.2826 42.2153 28.9049 43.1994 28.9021H50.6268ZM50.6268 27.4717H43.1994C40.3397 27.4717 38 29.7247 38 32.4786V39.6308C38 42.3846 40.3397 44.6377 43.1994 44.6377H50.6268C53.4865 44.6377 55.8262 42.3846 55.8262 39.6308V32.4786C55.8262 29.7247 53.4865 27.4717 50.6268 27.4717Z" fill="#126360"/>
<path d="M51.7414 32.4788C51.521 32.4788 51.3056 32.4158 51.1224 32.2979C50.9392 32.1801 50.7964 32.0125 50.7121 31.8165C50.6277 31.6204 50.6057 31.4047 50.6487 31.1966C50.6916 30.9885 50.7978 30.7973 50.9536 30.6472C51.1094 30.4972 51.3079 30.395 51.524 30.3536C51.7401 30.3122 51.9642 30.3335 52.1677 30.4147C52.3713 30.4959 52.5453 30.6334 52.6678 30.8098C52.7902 30.9863 52.8555 31.1937 52.8555 31.4059C52.8558 31.5469 52.8272 31.6865 52.7714 31.8168C52.7155 31.9471 52.6334 32.0655 52.5299 32.1652C52.4264 32.2649 52.3034 32.3439 52.1681 32.3977C52.0328 32.4515 51.8878 32.4791 51.7414 32.4788ZM46.9136 33.1938C47.5012 33.1938 48.0757 33.3616 48.5643 33.6759C49.0529 33.9903 49.4337 34.4372 49.6586 34.96C49.8835 35.4828 49.9423 36.058 49.8277 36.6131C49.713 37.1681 49.43 37.6779 49.0145 38.078C48.599 38.4781 48.0696 38.7506 47.4932 38.861C46.9169 38.9714 46.3195 38.9148 45.7766 38.6982C45.2337 38.4817 44.7696 38.1149 44.4431 37.6444C44.1167 37.1739 43.9424 36.6208 43.9424 36.0549C43.9433 35.2963 44.2566 34.569 44.8136 34.0327C45.3706 33.4963 46.1258 33.1946 46.9136 33.1938ZM46.9136 31.7634C46.0322 31.7634 45.1705 32.0151 44.4377 32.4866C43.7048 32.9582 43.1336 33.6284 42.7963 34.4126C42.459 35.1968 42.3707 36.0596 42.5427 36.8921C42.7146 37.7246 43.1391 38.4892 43.7623 39.0894C44.3856 39.6896 45.1797 40.0983 46.0442 40.2639C46.9086 40.4295 47.8047 40.3445 48.619 40.0197C49.4334 39.6949 50.1294 39.1448 50.6191 38.4391C51.1088 37.7334 51.3701 36.9037 51.3701 36.0549C51.3701 34.9167 50.9006 33.8251 50.0648 33.0203C49.2291 32.2155 48.0955 31.7634 46.9136 31.7634Z" fill="#126360"/>
<path fill-rule="evenodd" clip-rule="evenodd" d="M90.6524 36.1059C90.6524 31.3661 86.6614 27.5229 81.7393 27.5229C76.8172 27.5229 72.8262 31.3661 72.8262 36.1059C72.8262 40.3898 76.085 43.9406 80.3466 44.5851V38.5877H78.0829V36.1059H80.3466V34.215C80.3466 32.0643 81.6776 30.8753 83.7133 30.8753C84.6886 30.8753 85.7088 31.0431 85.7088 31.0431V33.1555H84.5843C83.4777 33.1555 83.1316 33.8169 83.1316 34.4966V36.1059H85.6033L85.2086 38.5877H83.132V44.5859C87.3935 43.9418 90.6524 40.3909 90.6524 36.1059Z" fill="#126360"/>
<path d="M126.752 30.225C126.035 30.5363 125.277 30.7414 124.502 30.8338C125.317 30.3565 125.93 29.5982 126.226 28.7011C125.455 29.1517 124.613 29.4679 123.737 29.6361C123.367 29.2492 122.923 28.9413 122.431 28.7313C121.939 28.5213 121.41 28.4136 120.875 28.4146C118.71 28.4146 116.957 30.1415 116.957 32.2703C116.956 32.5664 116.99 32.8616 117.058 33.1496C115.506 33.0769 113.985 32.6807 112.594 31.9867C111.203 31.2926 109.973 30.3158 108.981 29.1189C108.633 29.7054 108.449 30.3747 108.448 31.0567C108.448 32.3936 109.146 33.5754 110.199 34.2678C109.575 34.253 108.964 34.0878 108.417 33.7863V33.834C108.417 35.7042 109.77 37.26 111.561 37.6142C111.224 37.7039 110.877 37.7494 110.528 37.7494C110.281 37.7499 110.034 37.7259 109.792 37.6778C110.29 39.2098 111.738 40.3239 113.455 40.3557C112.06 41.4304 110.348 42.0113 108.587 42.007C108.275 42.0066 107.963 41.988 107.652 41.9513C109.443 43.095 111.525 43.7 113.65 43.6942C120.867 43.6942 124.809 37.8171 124.809 32.7199C124.809 32.5528 124.805 32.3857 124.797 32.2225C125.562 31.6782 126.224 31.0018 126.752 30.225Z" fill="#126360"/>
<path d="M152.809 27C147.807 27 143.752 31.0534 143.752 36.0526C143.752 39.7585 145.984 42.943 149.174 44.3454C149.15 43.7149 149.17 42.9551 149.331 42.2681C149.505 41.5326 150.496 37.3337 150.496 37.3337C150.496 37.3337 150.205 36.7558 150.205 35.903C150.205 34.5613 150.981 33.5591 151.951 33.5591C152.776 33.5591 153.172 34.1774 153.172 34.917C153.172 35.7454 152.643 36.9821 152.372 38.1298C152.145 39.0916 152.853 39.8716 153.803 39.8716C155.517 39.8716 156.674 37.6691 156.674 35.0584C156.674 33.0741 155.336 31.5909 152.906 31.5909C150.16 31.5909 148.446 33.6399 148.446 35.9273C148.446 36.7153 148.681 37.273 149.044 37.7014C149.21 37.8994 149.234 37.9803 149.174 38.2066C149.129 38.3723 149.032 38.7724 148.988 38.934C148.927 39.1644 148.741 39.2452 148.535 39.1603C147.269 38.6431 146.679 37.2609 146.679 35.701C146.679 33.1307 148.85 30.0472 153.152 30.0472C156.609 30.0472 158.885 32.5487 158.885 35.2322C158.885 38.7845 156.908 41.4356 153.997 41.4356C153.019 41.4356 152.101 40.9062 151.786 40.3081C151.786 40.3081 151.26 42.3934 151.147 42.7975C150.957 43.4967 150.581 44.1918 150.237 44.7374C151.071 44.9832 151.935 45.1084 152.805 45.1092C157.806 45.1092 161.861 41.0557 161.861 36.0566C161.861 31.0575 157.81 27 152.809 27Z" fill="#126360"/>
</svg>
